<mxfile host="app.diagrams.net" modified="2022-01-25T20:22:03.140Z" agent="5.0 (Macintosh)" etag="qiEHXmHhQJ4_ap521ATb" version="16.4.5" type="github">
  <diagram name="Page-1" id="b520641d-4fe3-3701-9064-5fc419738815">
    <mxGraphModel dx="1351" dy="726" grid="1" gridSize="10" guides="1" tooltips="1" connect="1" arrows="1" fold="1" page="1" pageScale="1" pageWidth="1100" pageHeight="850" background="none" math="0" shadow="0">
      <root>
        <mxCell id="0" />
        <mxCell id="1" parent="0" />
        <mxCell id="g2fEIn6jgDqQ6JZYBfqR-3" style="edgeStyle=orthogonalEdgeStyle;rounded=0;orthogonalLoop=1;jettySize=auto;html=1;exitX=0.25;exitY=1;exitDx=0;exitDy=0;" edge="1" parent="1" source="g2fEIn6jgDqQ6JZYBfqR-1">
          <mxGeometry relative="1" as="geometry">
            <mxPoint x="360" y="250" as="targetPoint" />
          </mxGeometry>
        </mxCell>
        <mxCell id="g2fEIn6jgDqQ6JZYBfqR-4" style="edgeStyle=orthogonalEdgeStyle;rounded=0;orthogonalLoop=1;jettySize=auto;html=1;exitX=0.75;exitY=1;exitDx=0;exitDy=0;" edge="1" parent="1" source="g2fEIn6jgDqQ6JZYBfqR-1">
          <mxGeometry relative="1" as="geometry">
            <mxPoint x="680" y="250" as="targetPoint" />
          </mxGeometry>
        </mxCell>
        <mxCell id="g2fEIn6jgDqQ6JZYBfqR-5" style="edgeStyle=orthogonalEdgeStyle;rounded=0;orthogonalLoop=1;jettySize=auto;html=1;exitX=0.5;exitY=1;exitDx=0;exitDy=0;" edge="1" parent="1" source="g2fEIn6jgDqQ6JZYBfqR-1">
          <mxGeometry relative="1" as="geometry">
            <mxPoint x="519.5" y="250" as="targetPoint" />
          </mxGeometry>
        </mxCell>
        <mxCell id="g2fEIn6jgDqQ6JZYBfqR-1" value="Main Page" style="html=1;whiteSpace=wrap;container=1;recursiveResize=0;collapsible=0;" vertex="1" parent="1">
          <mxGeometry x="440" y="80" width="160" height="70" as="geometry" />
        </mxCell>
        <mxCell id="g2fEIn6jgDqQ6JZYBfqR-31" value="Main Page" style="shape=process;whiteSpace=wrap;html=1;backgroundOutline=1;gradientColor=none;" vertex="1" parent="g2fEIn6jgDqQ6JZYBfqR-1">
          <mxGeometry y="5" width="160" height="60" as="geometry" />
        </mxCell>
        <mxCell id="g2fEIn6jgDqQ6JZYBfqR-2" value="" style="triangle;html=1;whiteSpace=wrap;fillColor=#0050ef;strokeColor=#001DBC;fontColor=#ffffff;" vertex="1" parent="g2fEIn6jgDqQ6JZYBfqR-1">
          <mxGeometry x="20" y="20" width="20" height="30" as="geometry" />
        </mxCell>
        <mxCell id="g2fEIn6jgDqQ6JZYBfqR-15" style="edgeStyle=orthogonalEdgeStyle;rounded=0;orthogonalLoop=1;jettySize=auto;html=1;exitX=0.5;exitY=1;exitDx=0;exitDy=0;entryX=1;entryY=0.5;entryDx=0;entryDy=0;entryPerimeter=0;" edge="1" parent="1" source="g2fEIn6jgDqQ6JZYBfqR-6" target="g2fEIn6jgDqQ6JZYBfqR-10">
          <mxGeometry relative="1" as="geometry" />
        </mxCell>
        <mxCell id="g2fEIn6jgDqQ6JZYBfqR-24" value="&lt;div&gt;Add &lt;br&gt;&lt;/div&gt;&lt;div&gt;New &lt;br&gt;&lt;/div&gt;&lt;div&gt;Order&lt;br&gt;&lt;/div&gt;" style="edgeLabel;html=1;align=center;verticalAlign=middle;resizable=0;points=[];" vertex="1" connectable="0" parent="g2fEIn6jgDqQ6JZYBfqR-15">
          <mxGeometry x="-0.4211" y="-1" relative="1" as="geometry">
            <mxPoint as="offset" />
          </mxGeometry>
        </mxCell>
        <mxCell id="g2fEIn6jgDqQ6JZYBfqR-6" value="&lt;table style=&quot;width: 100% ; height: 100% ; border-collapse: collapse&quot; width=&quot;100%&quot; cellpadding=&quot;4&quot; border=&quot;1&quot;&gt;&lt;tbody&gt;&lt;tr&gt;&lt;th align=&quot;center&quot;&gt;&lt;b&gt;New Order&lt;br&gt;&lt;/b&gt;&lt;/th&gt;&lt;/tr&gt;&lt;tr&gt;&lt;td align=&quot;center&quot;&gt;Section 1.1&lt;br&gt;Section 1.2&lt;br&gt;Section 1.3&lt;/td&gt;&lt;/tr&gt;&lt;tr&gt;&lt;td align=&quot;center&quot;&gt;Section 2.1&lt;br&gt;Section 2.2&lt;br&gt;Section 2.3&lt;/td&gt;&lt;/tr&gt;&lt;/tbody&gt;&lt;/table&gt;" style="text;html=1;strokeColor=none;fillColor=none;overflow=fill;" vertex="1" parent="1">
          <mxGeometry x="440" y="250" width="160" height="140" as="geometry" />
        </mxCell>
        <mxCell id="g2fEIn6jgDqQ6JZYBfqR-18" style="edgeStyle=orthogonalEdgeStyle;rounded=0;orthogonalLoop=1;jettySize=auto;html=1;exitX=0.5;exitY=1;exitDx=0;exitDy=0;entryX=1;entryY=1;entryDx=0;entryDy=-15;entryPerimeter=0;" edge="1" parent="1" source="g2fEIn6jgDqQ6JZYBfqR-7" target="g2fEIn6jgDqQ6JZYBfqR-10">
          <mxGeometry relative="1" as="geometry" />
        </mxCell>
        <mxCell id="g2fEIn6jgDqQ6JZYBfqR-25" value="View Specific Order" style="edgeLabel;html=1;align=center;verticalAlign=middle;resizable=0;points=[];" vertex="1" connectable="0" parent="g2fEIn6jgDqQ6JZYBfqR-18">
          <mxGeometry x="-0.7632" y="-2" relative="1" as="geometry">
            <mxPoint as="offset" />
          </mxGeometry>
        </mxCell>
        <mxCell id="g2fEIn6jgDqQ6JZYBfqR-7" value="&lt;table style=&quot;width: 100% ; height: 100% ; border-collapse: collapse&quot; width=&quot;100%&quot; cellpadding=&quot;4&quot; border=&quot;1&quot;&gt;&lt;tbody&gt;&lt;tr&gt;&lt;th align=&quot;center&quot;&gt;View Order&lt;br&gt;&lt;/th&gt;&lt;/tr&gt;&lt;tr&gt;&lt;td align=&quot;center&quot;&gt;Section 1.1&lt;br&gt;Section 1.2&lt;br&gt;Section 1.3&lt;/td&gt;&lt;/tr&gt;&lt;tr&gt;&lt;td align=&quot;center&quot;&gt;Section 2.1&lt;br&gt;Section 2.2&lt;br&gt;Section 2.3&lt;/td&gt;&lt;/tr&gt;&lt;/tbody&gt;&lt;/table&gt;" style="text;html=1;strokeColor=none;fillColor=none;overflow=fill;" vertex="1" parent="1">
          <mxGeometry x="680" y="250" width="160" height="140" as="geometry" />
        </mxCell>
        <mxCell id="g2fEIn6jgDqQ6JZYBfqR-14" style="edgeStyle=orthogonalEdgeStyle;rounded=0;orthogonalLoop=1;jettySize=auto;html=1;exitX=0.5;exitY=1;exitDx=0;exitDy=0;entryX=0;entryY=0.5;entryDx=0;entryDy=0;entryPerimeter=0;" edge="1" parent="1" source="g2fEIn6jgDqQ6JZYBfqR-8" target="g2fEIn6jgDqQ6JZYBfqR-10">
          <mxGeometry relative="1" as="geometry" />
        </mxCell>
        <mxCell id="g2fEIn6jgDqQ6JZYBfqR-23" value="&lt;div&gt;Search &lt;br&gt;&lt;/div&gt;&lt;div&gt;Existing &lt;br&gt;&lt;/div&gt;&lt;div&gt;Orders&lt;br&gt;&lt;/div&gt;" style="edgeLabel;html=1;align=center;verticalAlign=middle;resizable=0;points=[];" vertex="1" connectable="0" parent="g2fEIn6jgDqQ6JZYBfqR-14">
          <mxGeometry x="-0.6184" y="2" relative="1" as="geometry">
            <mxPoint as="offset" />
          </mxGeometry>
        </mxCell>
        <mxCell id="g2fEIn6jgDqQ6JZYBfqR-8" value="&lt;table style=&quot;width: 100% ; height: 100% ; border-collapse: collapse&quot; width=&quot;100%&quot; cellpadding=&quot;4&quot; border=&quot;1&quot;&gt;&lt;tbody&gt;&lt;tr&gt;&lt;th align=&quot;center&quot;&gt;&lt;b&gt;Lookup Order&lt;br&gt;&lt;/b&gt;&lt;/th&gt;&lt;/tr&gt;&lt;tr&gt;&lt;td align=&quot;center&quot;&gt;Section 1.1&lt;br&gt;Section 1.2&lt;br&gt;Section 1.3&lt;/td&gt;&lt;/tr&gt;&lt;tr&gt;&lt;td align=&quot;center&quot;&gt;Section 2.1&lt;br&gt;Section 2.2&lt;br&gt;Section 2.3&lt;/td&gt;&lt;/tr&gt;&lt;/tbody&gt;&lt;/table&gt;" style="text;html=1;strokeColor=none;fillColor=none;overflow=fill;" vertex="1" parent="1">
          <mxGeometry x="200" y="250" width="160" height="140" as="geometry" />
        </mxCell>
        <mxCell id="g2fEIn6jgDqQ6JZYBfqR-21" style="edgeStyle=orthogonalEdgeStyle;rounded=0;orthogonalLoop=1;jettySize=auto;html=1;exitX=0.855;exitY=1;exitDx=0;exitDy=-4.35;exitPerimeter=0;entryX=1;entryY=0.5;entryDx=0;entryDy=0;" edge="1" parent="1" source="g2fEIn6jgDqQ6JZYBfqR-10" target="g2fEIn6jgDqQ6JZYBfqR-1">
          <mxGeometry relative="1" as="geometry">
            <mxPoint x="1000" y="80" as="targetPoint" />
            <Array as="points">
              <mxPoint x="428" y="630" />
              <mxPoint x="930" y="630" />
              <mxPoint x="930" y="115" />
            </Array>
          </mxGeometry>
        </mxCell>
        <mxCell id="g2fEIn6jgDqQ6JZYBfqR-26" value="&lt;div&gt;Order&lt;/div&gt;&lt;div&gt;Not &lt;br&gt;&lt;/div&gt;&lt;div&gt;Found&lt;/div&gt;" style="edgeLabel;html=1;align=center;verticalAlign=middle;resizable=0;points=[];" vertex="1" connectable="0" parent="g2fEIn6jgDqQ6JZYBfqR-21">
          <mxGeometry x="-0.9745" y="-1" relative="1" as="geometry">
            <mxPoint y="17" as="offset" />
          </mxGeometry>
        </mxCell>
        <mxCell id="g2fEIn6jgDqQ6JZYBfqR-22" value="&lt;div&gt;Order &lt;br&gt;&lt;/div&gt;&lt;div&gt;Added &lt;br&gt;&lt;/div&gt;" style="edgeStyle=orthogonalEdgeStyle;rounded=0;orthogonalLoop=1;jettySize=auto;html=1;exitX=0.5;exitY=0;exitDx=0;exitDy=0;exitPerimeter=0;entryX=0;entryY=0.5;entryDx=0;entryDy=0;" edge="1" parent="1" source="g2fEIn6jgDqQ6JZYBfqR-10" target="g2fEIn6jgDqQ6JZYBfqR-1">
          <mxGeometry relative="1" as="geometry">
            <mxPoint x="399.5" y="160" as="targetPoint" />
          </mxGeometry>
        </mxCell>
        <mxCell id="g2fEIn6jgDqQ6JZYBfqR-27" style="edgeStyle=orthogonalEdgeStyle;rounded=0;orthogonalLoop=1;jettySize=auto;html=1;exitX=0.5;exitY=1;exitDx=0;exitDy=0;exitPerimeter=0;" edge="1" parent="1" source="g2fEIn6jgDqQ6JZYBfqR-10">
          <mxGeometry relative="1" as="geometry">
            <mxPoint x="400" y="680" as="targetPoint" />
          </mxGeometry>
        </mxCell>
        <mxCell id="g2fEIn6jgDqQ6JZYBfqR-30" value="&lt;div&gt;Single &lt;br&gt;&lt;/div&gt;&lt;div&gt;Order &lt;br&gt;&lt;/div&gt;&lt;div&gt;Found&lt;br&gt;&lt;/div&gt;" style="edgeLabel;html=1;align=center;verticalAlign=middle;resizable=0;points=[];" vertex="1" connectable="0" parent="g2fEIn6jgDqQ6JZYBfqR-27">
          <mxGeometry x="0.25" y="3" relative="1" as="geometry">
            <mxPoint as="offset" />
          </mxGeometry>
        </mxCell>
        <mxCell id="g2fEIn6jgDqQ6JZYBfqR-28" style="edgeStyle=orthogonalEdgeStyle;rounded=0;orthogonalLoop=1;jettySize=auto;html=1;exitX=0;exitY=1;exitDx=0;exitDy=-15;exitPerimeter=0;" edge="1" parent="1" source="g2fEIn6jgDqQ6JZYBfqR-10">
          <mxGeometry relative="1" as="geometry">
            <mxPoint x="240" y="680" as="targetPoint" />
          </mxGeometry>
        </mxCell>
        <mxCell id="g2fEIn6jgDqQ6JZYBfqR-33" value="&lt;div&gt;Multiple&lt;/div&gt;&lt;div&gt;Orders&lt;/div&gt;&lt;div&gt;Found&lt;br&gt;&lt;/div&gt;" style="edgeLabel;html=1;align=center;verticalAlign=middle;resizable=0;points=[];" vertex="1" connectable="0" parent="g2fEIn6jgDqQ6JZYBfqR-28">
          <mxGeometry x="0.6373" y="-1" relative="1" as="geometry">
            <mxPoint as="offset" />
          </mxGeometry>
        </mxCell>
        <mxCell id="g2fEIn6jgDqQ6JZYBfqR-10" value="Orders" style="shape=cylinder3;whiteSpace=wrap;html=1;boundedLbl=1;backgroundOutline=1;size=15;gradientColor=none;" vertex="1" parent="1">
          <mxGeometry x="360" y="440" width="80" height="120" as="geometry" />
        </mxCell>
        <mxCell id="g2fEIn6jgDqQ6JZYBfqR-37" style="edgeStyle=orthogonalEdgeStyle;rounded=0;orthogonalLoop=1;jettySize=auto;html=1;exitX=0.25;exitY=0;exitDx=0;exitDy=0;entryX=0.145;entryY=1;entryDx=0;entryDy=-4.35;entryPerimeter=0;" edge="1" parent="1" source="g2fEIn6jgDqQ6JZYBfqR-29" target="g2fEIn6jgDqQ6JZYBfqR-10">
          <mxGeometry relative="1" as="geometry" />
        </mxCell>
        <mxCell id="g2fEIn6jgDqQ6JZYBfqR-38" value="&lt;div&gt;Order&lt;/div&gt;&lt;div&gt;Updated&lt;br&gt;&lt;/div&gt;" style="edgeLabel;html=1;align=center;verticalAlign=middle;resizable=0;points=[];" vertex="1" connectable="0" parent="g2fEIn6jgDqQ6JZYBfqR-37">
          <mxGeometry x="-0.0018" y="1" relative="1" as="geometry">
            <mxPoint x="-11" as="offset" />
          </mxGeometry>
        </mxCell>
        <mxCell id="g2fEIn6jgDqQ6JZYBfqR-29" value="&lt;div&gt;View / Edit &lt;br&gt;&lt;/div&gt;&lt;div&gt;Order&lt;br&gt;&lt;/div&gt;&amp;nbsp;Page" style="shape=process;whiteSpace=wrap;html=1;backgroundOutline=1;gradientColor=none;" vertex="1" parent="1">
          <mxGeometry x="340" y="680" width="120" height="60" as="geometry" />
        </mxCell>
        <mxCell id="g2fEIn6jgDqQ6JZYBfqR-34" style="edgeStyle=orthogonalEdgeStyle;rounded=0;orthogonalLoop=1;jettySize=auto;html=1;exitX=1;exitY=0.5;exitDx=0;exitDy=0;entryX=0;entryY=0.5;entryDx=0;entryDy=0;" edge="1" parent="1" source="g2fEIn6jgDqQ6JZYBfqR-32" target="g2fEIn6jgDqQ6JZYBfqR-29">
          <mxGeometry relative="1" as="geometry" />
        </mxCell>
        <mxCell id="g2fEIn6jgDqQ6JZYBfqR-32" value="&lt;div&gt;Select Specific&lt;/div&gt;&lt;div&gt;Order Page&lt;br&gt;&lt;/div&gt;" style="shape=process;whiteSpace=wrap;html=1;backgroundOutline=1;gradientColor=none;" vertex="1" parent="1">
          <mxGeometry x="180" y="680" width="120" height="60" as="geometry" />
        </mxCell>
        <mxCell id="g2fEIn6jgDqQ6JZYBfqR-35" value="Order Selected" style="text;html=1;strokeColor=none;fillColor=none;align=center;verticalAlign=middle;whiteSpace=wrap;rounded=0;" vertex="1" parent="1">
          <mxGeometry x="290" y="740" width="60" height="30" as="geometry" />
        </mxCell>
      </root>
    </mxGraphModel>
  </diagram>
</mxfile>
